<?xml version="1.0" standalone="no"?>
<!DOCTYPE svg PUBLIC "-//W3C//DTD SVG 20010904//EN"
 "http://www.w3.org/TR/2001/REC-SVG-20010904/DTD/svg10.dtd">
<svg version="1.0" xmlns="http://www.w3.org/2000/svg"
 width="430.000000pt" height="190.000000pt" viewBox="0 0 430.000000 190.000000"
 preserveAspectRatio="xMidYMid meet">
<g transform="translate(0.000000,190.000000) scale(0.100000,-0.100000)"
fill="#3B4756" stroke="none">
<path d="M1838 1722 c-62 -59 -228 -215 -368 -347 -140 -131 -455 -428 -700
-659 -245 -232 -488 -461 -540 -511 -53 -49 -103 -100 -113 -112 l-18 -23 284
0 284 0 195 94 c107 52 398 192 647 310 l453 216 189 0 189 0 527 -254 c291
-140 580 -279 643 -310 l115 -56 288 0 c158 0 287 4 287 9 0 9 -109 116 -235
232 -38 35 -203 188 -365 340 -162 151 -327 304 -365 340 -65 59 -420 387
-560 518 -33 31 -124 116 -202 189 l-142 132 -190 0 -190 0 -113 -108z m172
-477 l0 -325 -351 0 -351 0 58 53 c105 94 325 299 484 449 85 81 156 147 158
148 1 0 2 -146 2 -325z m515 99 c88 -82 216 -201 285 -263 69 -63 136 -125
150 -138 l25 -23 -353 0 -352 0 0 327 0 327 43 -40 c23 -22 114 -107 202 -190z
m-1045 -657 c-14 -6 -148 -71 -299 -144 -151 -73 -276 -131 -278 -129 -2 2 16
33 39 69 24 36 64 100 90 141 l47 76 213 -1 c166 0 207 -3 188 -12z m1784 -70
c27 -45 67 -108 88 -140 21 -32 38 -61 38 -63 0 -3 -12 2 -27 10 -16 9 -152
75 -303 146 l-275 130 215 0 215 -1 49 -82z"/>
</g>
</svg>
